<?xml version="1.0" encoding="us-ascii" standalone="no"?><svg xmlns="http://www.w3.org/2000/svg" xmlns:xlink="http://www.w3.org/1999/xlink" contentStyleType="text/css" height="1301px" preserveAspectRatio="none" style="width:1461px;height:1301px;background:#FFFFFF;" version="1.1" viewBox="0 0 1461 1301" width="1461px" zoomAndPan="magnify"><defs/><g><!--class lexical_category--><g id="elem_lexical_category"><rect codeLine="5" fill="#F1F1F1" height="105.2038" id="lexical_category" rx="2.5" ry="2.5" style="stroke:#181818;stroke-width:0.5;" width="191" x="351.5" y="442.29"/><ellipse cx="390.35" cy="458.29" fill="#ADD1B2" rx="11" ry="11" style="stroke:#181818;stroke-width:1.0;"/><path d="M386.7094,464.79 L386.7094,452.6494 L394.3656,452.6494 L394.3656,454.7744 L389.0844,454.7744 L389.0844,457.4306 L394.1,457.4306 L394.1,459.5556 L389.0844,459.5556 L389.0844,462.665 L394.3656,462.665 L394.3656,464.79 L386.7094,464.79 Z " fill="#000000"/><text fill="#000000" font-family="sans-serif" font-size="14" lengthAdjust="spacing" textLength="106" x="409.65" y="463.722">lexical_category</text><line style="stroke:#181818;stroke-width:0.5;" x1="352.5" x2="541.5" y1="474.29" y2="474.29"/><ellipse cx="362.5" cy="489.324" fill="none" rx="3" ry="3" style="stroke:#038048;stroke-width:1.0;"/><text fill="#000000" font-family="sans-serif" font-size="14" lengthAdjust="spacing" textLength="165" x="371.5" y="493.2559">id INT PRIMARY UNIQUE</text><ellipse cx="362.5" cy="508.3919" fill="none" rx="3" ry="3" style="stroke:#038048;stroke-width:1.0;"/><text fill="#000000" font-family="sans-serif" font-size="14" lengthAdjust="spacing" textLength="50" x="371.5" y="512.3239">qid INT</text><ellipse cx="362.5" cy="527.4598" fill="none" rx="3" ry="3" style="stroke:#038048;stroke-width:1.0;"/><text fill="#000000" font-family="sans-serif" font-size="14" lengthAdjust="spacing" textLength="82" x="371.5" y="531.3918">postag TEXT</text><line style="stroke:#181818;stroke-width:0.5;" x1="352.5" x2="541.5" y1="539.4938" y2="539.4938"/></g><!--class language--><g id="elem_language"><rect codeLine="12" fill="#F1F1F1" height="124.2717" id="language" rx="2.5" ry="2.5" style="stroke:#181818;stroke-width:0.5;" width="256" x="506" y="636.09"/><ellipse cx="597.75" cy="652.09" fill="#ADD1B2" rx="11" ry="11" style="stroke:#181818;stroke-width:1.0;"/><path d="M597.2188,659.0119 Q595.4688,659.0119 594.3281,658.2775 Q593.2031,657.5275 592.6406,656.1837 Q592.0938,654.8244 592.0938,653.0275 Q592.0938,650.9962 592.75,649.5431 Q593.4063,648.09 594.6875,647.3087 Q595.9688,646.5275 597.8438,646.5275 Q598.7344,646.5275 599.4063,646.715 Q600.0781,646.8869 600.7656,647.2306 L599.9531,649.2462 Q599.3281,648.9337 598.7813,648.8087 Q598.25,648.6837 597.7656,648.6837 Q596.5938,648.6837 595.8906,649.215 Q595.1875,649.7462 594.8906,650.6994 Q594.5938,651.6525 594.5938,652.9181 Q594.5938,654.9337 595.3125,655.9025 Q596.0313,656.8556 597.625,656.8556 Q598.2188,656.8556 598.8438,656.6994 Q599.4688,656.5431 600.2969,656.1681 L600.2969,658.3869 Q599.5625,658.6994 598.7656,658.8556 Q597.9844,659.0119 597.2188,659.0119 Z " fill="#000000"/><text fill="#000000" font-family="sans-serif" font-size="14" lengthAdjust="spacing" textLength="64" x="618.25" y="657.522">language</text><line style="stroke:#181818;stroke-width:0.5;" x1="507" x2="761" y1="668.09" y2="668.09"/><ellipse cx="517" cy="683.124" fill="none" rx="3" ry="3" style="stroke:#038048;stroke-width:1.0;"/><text fill="#000000" font-family="sans-serif" font-size="14" lengthAdjust="spacing" textLength="230" x="526" y="687.0559">id INT PRIMARY AUTOINCREMENT</text><ellipse cx="517" cy="702.1919" fill="none" rx="3" ry="3" style="stroke:#038048;stroke-width:1.0;"/><text fill="#000000" font-family="sans-serif" font-size="14" lengthAdjust="spacing" textLength="229" x="526" y="706.1239">name_en TEXT NOT NULL UNIQUE</text><ellipse cx="517" cy="721.2598" fill="none" rx="3" ry="3" style="stroke:#038048;stroke-width:1.0;"/><text fill="#000000" font-family="sans-serif" font-size="14" lengthAdjust="spacing" textLength="225" x="526" y="725.1918">iso_code TEXT NOT NULL UNIQUE</text><ellipse cx="517" cy="740.3277" fill="none" rx="3" ry="3" style="stroke:#038048;stroke-width:1.0;"/><text fill="#000000" font-family="sans-serif" font-size="14" lengthAdjust="spacing" textLength="182" x="526" y="744.2597">qid INT NOT NULL UNIQUE</text><line style="stroke:#181818;stroke-width:0.5;" x1="507" x2="761" y1="752.3617" y2="752.3617"/></g><!--class provider--><g id="elem_provider"><rect codeLine="19" fill="#F1F1F1" height="105.2038" id="provider" rx="2.5" ry="2.5" style="stroke:#181818;stroke-width:0.5;" width="271" x="864.5" y="1188.91"/><ellipse cx="967.25" cy="1204.91" fill="#ADD1B2" rx="11" ry="11" style="stroke:#181818;stroke-width:1.0;"/><path d="M963.6094,1211.41 L963.6094,1199.2694 L971.2656,1199.2694 L971.2656,1201.3944 L965.9844,1201.3944 L965.9844,1204.0506 L971,1204.0506 L971,1206.1756 L965.9844,1206.1756 L965.9844,1209.285 L971.2656,1209.285 L971.2656,1211.41 L963.6094,1211.41 Z " fill="#000000"/><text fill="#000000" font-family="sans-serif" font-size="14" lengthAdjust="spacing" textLength="57" x="987.75" y="1210.342">provider</text><line style="stroke:#181818;stroke-width:0.5;" x1="865.5" x2="1134.5" y1="1220.91" y2="1220.91"/><ellipse cx="875.5" cy="1235.944" fill="none" rx="3" ry="3" style="stroke:#038048;stroke-width:1.0;"/><text fill="#000000" font-family="sans-serif" font-size="14" lengthAdjust="spacing" textLength="230" x="884.5" y="1239.8759">id INT PRIMARY AUTOINCREMENT</text><ellipse cx="875.5" cy="1255.0119" fill="none" rx="3" ry="3" style="stroke:#038048;stroke-width:1.0;"/><text fill="#000000" font-family="sans-serif" font-size="14" lengthAdjust="spacing" textLength="135" x="884.5" y="1258.9439">title TEXT NOT NULL</text><line style="stroke:#181818;stroke-width:0.5;" x1="865.5" x2="1134.5" y1="1267.0458" y2="1267.0458"/><ellipse cx="875.5" cy="1282.0798" fill="#84BE84" rx="3" ry="3" style="stroke:#038048;stroke-width:1.0;"/><text fill="#000000" font-family="sans-serif" font-size="14" lengthAdjust="spacing" textLength="245" x="884.5" y="1286.0118">qid VARCHAR(30) NOT NULL UNIQUE</text></g><!--class collection--><g id="elem_collection"><rect codeLine="26" fill="#F1F1F1" height="124.2717" id="collection" rx="2.5" ry="2.5" style="stroke:#181818;stroke-width:0.5;" width="271" x="864.5" y="820.36"/><ellipse cx="963.75" cy="836.36" fill="#ADD1B2" rx="11" ry="11" style="stroke:#181818;stroke-width:1.0;"/><path d="M960.1094,842.86 L960.1094,830.7194 L967.7656,830.7194 L967.7656,832.8444 L962.4844,832.8444 L962.4844,835.5006 L967.5,835.5006 L967.5,837.6256 L962.4844,837.6256 L962.4844,840.735 L967.7656,840.735 L967.7656,842.86 L960.1094,842.86 Z " fill="#000000"/><text fill="#000000" font-family="sans-serif" font-size="14" lengthAdjust="spacing" textLength="64" x="984.25" y="841.792">collection</text><line style="stroke:#181818;stroke-width:0.5;" x1="865.5" x2="1134.5" y1="852.36" y2="852.36"/><ellipse cx="875.5" cy="867.394" fill="none" rx="3" ry="3" style="stroke:#038048;stroke-width:1.0;"/><text fill="#000000" font-family="sans-serif" font-size="14" lengthAdjust="spacing" textLength="230" x="884.5" y="871.3259">id INT PRIMARY AUTOINCREMENT</text><ellipse cx="875.5" cy="886.4619" fill="none" rx="3" ry="3" style="stroke:#038048;stroke-width:1.0;"/><text fill="#000000" font-family="sans-serif" font-size="14" lengthAdjust="spacing" textLength="135" x="884.5" y="890.3939">title TEXT NOT NULL</text><ellipse cx="875.5" cy="905.5298" fill="none" rx="3" ry="3" style="stroke:#038048;stroke-width:1.0;"/><text fill="#000000" font-family="sans-serif" font-size="14" lengthAdjust="spacing" textLength="158" x="884.5" y="909.4618">provider INT NOT NULL</text><line style="stroke:#181818;stroke-width:0.5;" x1="865.5" x2="1134.5" y1="917.5638" y2="917.5638"/><ellipse cx="875.5" cy="932.5977" fill="#84BE84" rx="3" ry="3" style="stroke:#038048;stroke-width:1.0;"/><text fill="#000000" font-family="sans-serif" font-size="14" lengthAdjust="spacing" textLength="245" x="884.5" y="936.5297">qid VARCHAR(30) NOT NULL UNIQUE</text></g><!--class dataset--><g id="elem_dataset"><rect codeLine="34" fill="#F1F1F1" height="124.2717" id="dataset" rx="2.5" ry="2.5" style="stroke:#181818;stroke-width:0.5;" width="271" x="864.5" y="1004.63"/><ellipse cx="970.75" cy="1020.63" fill="#ADD1B2" rx="11" ry="11" style="stroke:#181818;stroke-width:1.0;"/><path d="M967.1094,1027.13 L967.1094,1014.9894 L974.7656,1014.9894 L974.7656,1017.1144 L969.4844,1017.1144 L969.4844,1019.7706 L974.5,1019.7706 L974.5,1021.8956 L969.4844,1021.8956 L969.4844,1025.005 L974.7656,1025.005 L974.7656,1027.13 L967.1094,1027.13 Z " fill="#000000"/><text fill="#000000" font-family="sans-serif" font-size="14" lengthAdjust="spacing" textLength="50" x="991.25" y="1026.062">dataset</text><line style="stroke:#181818;stroke-width:0.5;" x1="865.5" x2="1134.5" y1="1036.63" y2="1036.63"/><ellipse cx="875.5" cy="1051.664" fill="none" rx="3" ry="3" style="stroke:#038048;stroke-width:1.0;"/><text fill="#000000" font-family="sans-serif" font-size="14" lengthAdjust="spacing" textLength="230" x="884.5" y="1055.5959">id INT PRIMARY AUTOINCREMENT</text><ellipse cx="875.5" cy="1070.7319" fill="none" rx="3" ry="3" style="stroke:#038048;stroke-width:1.0;"/><text fill="#000000" font-family="sans-serif" font-size="14" lengthAdjust="spacing" textLength="135" x="884.5" y="1074.6639">title TEXT NOT NULL</text><ellipse cx="875.5" cy="1089.7998" fill="none" rx="3" ry="3" style="stroke:#038048;stroke-width:1.0;"/><text fill="#000000" font-family="sans-serif" font-size="14" lengthAdjust="spacing" textLength="165" x="884.5" y="1093.7318">collection INT NOT NULL</text><line style="stroke:#181818;stroke-width:0.5;" x1="865.5" x2="1134.5" y1="1101.8338" y2="1101.8338"/><ellipse cx="875.5" cy="1116.8677" fill="#84BE84" rx="3" ry="3" style="stroke:#038048;stroke-width:1.0;"/><text fill="#000000" font-family="sans-serif" font-size="14" lengthAdjust="spacing" textLength="245" x="884.5" y="1120.7997">qid VARCHAR(30) NOT NULL UNIQUE</text></g><!--class document--><g id="elem_document"><rect codeLine="42" fill="#F1F1F1" height="105.2038" id="document" rx="2.5" ry="2.5" style="stroke:#181818;stroke-width:0.5;" width="256" x="872" y="645.63"/><ellipse cx="961.75" cy="661.63" fill="#ADD1B2" rx="11" ry="11" style="stroke:#181818;stroke-width:1.0;"/><path d="M958.1094,668.13 L958.1094,655.9894 L965.7656,655.9894 L965.7656,658.1144 L960.4844,658.1144 L960.4844,660.7706 L965.5,660.7706 L965.5,662.8956 L960.4844,662.8956 L960.4844,666.005 L965.7656,666.005 L965.7656,668.13 L958.1094,668.13 Z " fill="#000000"/><text fill="#000000" font-family="sans-serif" font-size="14" lengthAdjust="spacing" textLength="68" x="982.25" y="667.062">document</text><line style="stroke:#181818;stroke-width:0.5;" x1="873" x2="1127" y1="677.63" y2="677.63"/><ellipse cx="883" cy="692.664" fill="none" rx="3" ry="3" style="stroke:#038048;stroke-width:1.0;"/><text fill="#000000" font-family="sans-serif" font-size="14" lengthAdjust="spacing" textLength="230" x="892" y="696.5959">id INT PRIMARY AUTOINCREMENT</text><ellipse cx="883" cy="711.7319" fill="none" rx="3" ry="3" style="stroke:#038048;stroke-width:1.0;"/><text fill="#000000" font-family="sans-serif" font-size="14" lengthAdjust="spacing" textLength="151" x="892" y="715.6639">dataset INT NOT NULL</text><ellipse cx="883" cy="730.7998" fill="none" rx="3" ry="3" style="stroke:#038048;stroke-width:1.0;"/><text fill="#000000" font-family="sans-serif" font-size="14" lengthAdjust="spacing" textLength="183" x="892" y="734.7318">external_id TEXT NOT NULL</text><line style="stroke:#181818;stroke-width:0.5;" x1="873" x2="1127" y1="742.8338" y2="742.8338"/></g><!--class sentence--><g id="elem_sentence"><rect codeLine="49" fill="#F1F1F1" height="162.4075" id="sentence" rx="2.5" ry="2.5" style="stroke:#181818;stroke-width:0.5;" width="256" x="910" y="413.68"/><ellipse cx="1003.25" cy="429.68" fill="#ADD1B2" rx="11" ry="11" style="stroke:#181818;stroke-width:1.0;"/><path d="M999.6094,436.18 L999.6094,424.0394 L1007.2656,424.0394 L1007.2656,426.1644 L1001.9844,426.1644 L1001.9844,428.8206 L1007,428.8206 L1007,430.9456 L1001.9844,430.9456 L1001.9844,434.055 L1007.2656,434.055 L1007.2656,436.18 L999.6094,436.18 Z " fill="#000000"/><text fill="#000000" font-family="sans-serif" font-size="14" lengthAdjust="spacing" textLength="61" x="1023.75" y="435.112">sentence</text><line style="stroke:#181818;stroke-width:0.5;" x1="911" x2="1165" y1="445.68" y2="445.68"/><ellipse cx="921" cy="460.714" fill="none" rx="3" ry="3" style="stroke:#038048;stroke-width:1.0;"/><text fill="#000000" font-family="sans-serif" font-size="14" lengthAdjust="spacing" textLength="230" x="930" y="464.6459">id INT PRIMARY AUTOINCREMENT</text><ellipse cx="921" cy="479.7819" fill="none" rx="3" ry="3" style="stroke:#038048;stroke-width:1.0;"/><text fill="#000000" font-family="sans-serif" font-size="14" lengthAdjust="spacing" textLength="134" x="930" y="483.7139">text TEXT NOT NULL</text><ellipse cx="921" cy="498.8498" fill="none" rx="3" ry="3" style="stroke:#038048;stroke-width:1.0;"/><text fill="#000000" font-family="sans-serif" font-size="14" lengthAdjust="spacing" textLength="199" x="930" y="502.7818">uuid TEXT NOT NULL UNIQUE</text><ellipse cx="921" cy="517.9177" fill="none" rx="3" ry="3" style="stroke:#038048;stroke-width:1.0;"/><text fill="#000000" font-family="sans-serif" font-size="14" lengthAdjust="spacing" textLength="169" x="930" y="521.8497">document INT NOT NULL</text><ellipse cx="921" cy="536.9856" fill="none" rx="3" ry="3" style="stroke:#038048;stroke-width:1.0;"/><text fill="#000000" font-family="sans-serif" font-size="14" lengthAdjust="spacing" textLength="137" x="930" y="540.9176">score INT NOT NULL</text><ellipse cx="921" cy="556.0535" fill="none" rx="3" ry="3" style="stroke:#038048;stroke-width:1.0;"/><text fill="#000000" font-family="sans-serif" font-size="14" lengthAdjust="spacing" textLength="165" x="930" y="559.9855">language INT NOT NULL</text><line style="stroke:#181818;stroke-width:0.5;" x1="911" x2="1165" y1="568.0875" y2="568.0875"/></g><!--class rawtoken_sentence_linking--><g id="elem_rawtoken_sentence_linking"><rect codeLine="59" fill="#F1F1F1" height="86.1358" id="rawtoken_sentence_linking" rx="2.5" ry="2.5" style="stroke:#181818;stroke-width:0.5;" width="213" x="243.5" y="655.16"/><ellipse cx="258.5" cy="671.16" fill="#ADD1B2" rx="11" ry="11" style="stroke:#181818;stroke-width:1.0;"/><path d="M254.8594,677.66 L254.8594,665.5194 L262.5156,665.5194 L262.5156,667.6444 L257.2344,667.6444 L257.2344,670.3006 L262.25,670.3006 L262.25,672.4256 L257.2344,672.4256 L257.2344,675.535 L262.5156,675.535 L262.5156,677.66 L254.8594,677.66 Z " fill="#000000"/><text fill="#000000" font-family="sans-serif" font-size="14" lengthAdjust="spacing" textLength="181" x="272.5" y="676.592">rawtoken_sentence_linking</text><line style="stroke:#181818;stroke-width:0.5;" x1="244.5" x2="455.5" y1="687.16" y2="687.16"/><ellipse cx="254.5" cy="702.194" fill="none" rx="3" ry="3" style="stroke:#038048;stroke-width:1.0;"/><text fill="#000000" font-family="sans-serif" font-size="14" lengthAdjust="spacing" textLength="154" x="263.5" y="706.1259">sentence INT PRIMARY</text><ellipse cx="254.5" cy="721.2619" fill="none" rx="3" ry="3" style="stroke:#038048;stroke-width:1.0;"/><text fill="#000000" font-family="sans-serif" font-size="14" lengthAdjust="spacing" textLength="155" x="263.5" y="725.1939">rawtoken INT PRIMARY</text><line style="stroke:#181818;stroke-width:0.5;" x1="244.5" x2="455.5" y1="733.2958" y2="733.2958"/></g><!--class lexeme_form--><g id="elem_lexeme_form"><rect codeLine="65" fill="#F1F1F1" height="86.1358" id="lexeme_form" rx="2.5" ry="2.5" style="stroke:#181818;stroke-width:0.5;" width="167" x="205.5" y="35.61"/><ellipse cx="242.55" cy="51.61" fill="#ADD1B2" rx="11" ry="11" style="stroke:#181818;stroke-width:1.0;"/><path d="M238.9094,58.11 L238.9094,45.9694 L246.5656,45.9694 L246.5656,48.0944 L241.2844,48.0944 L241.2844,50.7506 L246.3,50.7506 L246.3,52.8756 L241.2844,52.8756 L241.2844,55.985 L246.5656,55.985 L246.5656,58.11 L238.9094,58.11 Z " fill="#000000"/><text fill="#000000" font-family="sans-serif" font-size="14" lengthAdjust="spacing" textLength="86" x="261.45" y="57.042">lexeme_form</text><line style="stroke:#181818;stroke-width:0.5;" x1="206.5" x2="371.5" y1="67.61" y2="67.61"/><ellipse cx="216.5" cy="82.644" fill="none" rx="3" ry="3" style="stroke:#038048;stroke-width:1.0;"/><text fill="#000000" font-family="sans-serif" font-size="14" lengthAdjust="spacing" textLength="141" x="225.5" y="86.5759">lexeme INT PRIMARY</text><ellipse cx="216.5" cy="101.7119" fill="none" rx="3" ry="3" style="stroke:#038048;stroke-width:1.0;"/><text fill="#000000" font-family="sans-serif" font-size="14" lengthAdjust="spacing" textLength="125" x="225.5" y="105.6439">form INT PRIMARY</text><line style="stroke:#181818;stroke-width:0.5;" x1="206.5" x2="371.5" y1="113.7458" y2="113.7458"/></g><!--class rawtoken_lexeme_form_linking--><g id="elem_rawtoken_lexeme_form_linking"><rect codeLine="71" fill="#F1F1F1" height="105.2038" id="rawtoken_lexeme_form_linking" rx="2.5" ry="2.5" style="stroke:#181818;stroke-width:0.5;" width="238" x="7" y="442.29"/><ellipse cx="22" cy="458.29" fill="#ADD1B2" rx="11" ry="11" style="stroke:#181818;stroke-width:1.0;"/><path d="M18.3594,464.79 L18.3594,452.6494 L26.0156,452.6494 L26.0156,454.7744 L20.7344,454.7744 L20.7344,457.4306 L25.75,457.4306 L25.75,459.5556 L20.7344,459.5556 L20.7344,462.665 L26.0156,462.665 L26.0156,464.79 L18.3594,464.79 Z " fill="#000000"/><text fill="#000000" font-family="sans-serif" font-size="14" lengthAdjust="spacing" textLength="206" x="36" y="463.722">rawtoken_lexeme_form_linking</text><line style="stroke:#181818;stroke-width:0.5;" x1="8" x2="244" y1="474.29" y2="474.29"/><ellipse cx="18" cy="489.324" fill="none" rx="3" ry="3" style="stroke:#038048;stroke-width:1.0;"/><text fill="#000000" font-family="sans-serif" font-size="14" lengthAdjust="spacing" textLength="155" x="27" y="493.2559">rawtoken INT PRIMARY</text><ellipse cx="18" cy="508.3919" fill="none" rx="3" ry="3" style="stroke:#038048;stroke-width:1.0;"/><text fill="#000000" font-family="sans-serif" font-size="14" lengthAdjust="spacing" textLength="141" x="27" y="512.3239">lexeme INT PRIMARY</text><ellipse cx="18" cy="527.4598" fill="none" rx="3" ry="3" style="stroke:#038048;stroke-width:1.0;"/><text fill="#000000" font-family="sans-serif" font-size="14" lengthAdjust="spacing" textLength="125" x="27" y="531.3918">form INT PRIMARY</text><line style="stroke:#181818;stroke-width:0.5;" x1="8" x2="244" y1="539.4938" y2="539.4938"/></g><!--class rawtoken--><g id="elem_rawtoken"><rect codeLine="80" fill="#F1F1F1" height="143.3396" id="rawtoken" rx="2.5" ry="2.5" style="stroke:#181818;stroke-width:0.5;" width="256" x="323" y="210.34"/><ellipse cx="415.75" cy="226.34" fill="#ADD1B2" rx="11" ry="11" style="stroke:#181818;stroke-width:1.0;"/><path d="M412.1094,232.84 L412.1094,220.6994 L419.7656,220.6994 L419.7656,222.8244 L414.4844,222.8244 L414.4844,225.4806 L419.5,225.4806 L419.5,227.6056 L414.4844,227.6056 L414.4844,230.715 L419.7656,230.715 L419.7656,232.84 L412.1094,232.84 Z " fill="#000000"/><text fill="#000000" font-family="sans-serif" font-size="14" lengthAdjust="spacing" textLength="62" x="436.25" y="231.772">rawtoken</text><line style="stroke:#181818;stroke-width:0.5;" x1="324" x2="578" y1="242.34" y2="242.34"/><ellipse cx="334" cy="257.374" fill="none" rx="3" ry="3" style="stroke:#038048;stroke-width:1.0;"/><text fill="#000000" font-family="sans-serif" font-size="14" lengthAdjust="spacing" textLength="230" x="343" y="261.3059">id INT PRIMARY AUTOINCREMENT</text><ellipse cx="334" cy="276.4419" fill="none" rx="3" ry="3" style="stroke:#038048;stroke-width:1.0;"/><text fill="#000000" font-family="sans-serif" font-size="14" lengthAdjust="spacing" textLength="134" x="343" y="280.3739">lexical_category INT</text><ellipse cx="334" cy="295.5098" fill="none" rx="3" ry="3" style="stroke:#038048;stroke-width:1.0;"/><text fill="#000000" font-family="sans-serif" font-size="14" lengthAdjust="spacing" textLength="134" x="343" y="299.4418">text TEXT NOT NULL</text><ellipse cx="334" cy="314.5777" fill="none" rx="3" ry="3" style="stroke:#038048;stroke-width:1.0;"/><text fill="#000000" font-family="sans-serif" font-size="14" lengthAdjust="spacing" textLength="137" x="343" y="318.5097">score INT NOT NULL</text><ellipse cx="334" cy="333.6456" fill="none" rx="3" ry="3" style="stroke:#038048;stroke-width:1.0;"/><text fill="#000000" font-family="sans-serif" font-size="14" lengthAdjust="spacing" textLength="165" x="343" y="337.5776">language INT NOT NULL</text><line style="stroke:#181818;stroke-width:0.5;" x1="324" x2="578" y1="345.6796" y2="345.6796"/></g><!--class score--><g id="elem_score"><rect codeLine="89" fill="#F1F1F1" height="86.1358" id="score" rx="2.5" ry="2.5" style="stroke:#181818;stroke-width:0.5;" width="291" x="1163.5" y="655.16"/><ellipse cx="1286.75" cy="671.16" fill="#ADD1B2" rx="11" ry="11" style="stroke:#181818;stroke-width:1.0;"/><path d="M1283.1094,677.66 L1283.1094,665.5194 L1290.7656,665.5194 L1290.7656,667.6444 L1285.4844,667.6444 L1285.4844,670.3006 L1290.5,670.3006 L1290.5,672.4256 L1285.4844,672.4256 L1285.4844,675.535 L1290.7656,675.535 L1290.7656,677.66 L1283.1094,677.66 Z " fill="#000000"/><text fill="#000000" font-family="sans-serif" font-size="14" lengthAdjust="spacing" textLength="36" x="1307.25" y="676.592">score</text><line style="stroke:#181818;stroke-width:0.5;" x1="1164.5" x2="1453.5" y1="687.16" y2="687.16"/><ellipse cx="1174.5" cy="702.194" fill="none" rx="3" ry="3" style="stroke:#038048;stroke-width:1.0;"/><text fill="#000000" font-family="sans-serif" font-size="14" lengthAdjust="spacing" textLength="265" x="1183.5" y="706.1259">id INTEGER PRIMARY AUTOINCREMENT</text><ellipse cx="1174.5" cy="721.2619" fill="none" rx="3" ry="3" style="stroke:#038048;stroke-width:1.0;"/><text fill="#000000" font-family="sans-serif" font-size="14" lengthAdjust="spacing" textLength="214" x="1183.5" y="725.1939">score FLOAT NOT NULL UNIQUE</text><line style="stroke:#181818;stroke-width:0.5;" x1="1164.5" x2="1453.5" y1="733.2958" y2="733.2958"/></g><!--class normtoken--><g id="elem_normtoken"><rect codeLine="98" fill="#F1F1F1" height="86.1358" id="normtoken" rx="2.5" ry="2.5" style="stroke:#181818;stroke-width:0.5;" width="256" x="460" y="35.61"/><ellipse cx="547.25" cy="51.61" fill="#ADD1B2" rx="11" ry="11" style="stroke:#181818;stroke-width:1.0;"/><path d="M543.6094,58.11 L543.6094,45.9694 L551.2656,45.9694 L551.2656,48.0944 L545.9844,48.0944 L545.9844,50.7506 L551,50.7506 L551,52.8756 L545.9844,52.8756 L545.9844,55.985 L551.2656,55.985 L551.2656,58.11 L543.6094,58.11 Z " fill="#000000"/><text fill="#000000" font-family="sans-serif" font-size="14" lengthAdjust="spacing" textLength="73" x="567.75" y="57.042">normtoken</text><line style="stroke:#181818;stroke-width:0.5;" x1="461" x2="715" y1="67.61" y2="67.61"/><ellipse cx="471" cy="82.644" fill="none" rx="3" ry="3" style="stroke:#038048;stroke-width:1.0;"/><text fill="#000000" font-family="sans-serif" font-size="14" lengthAdjust="spacing" textLength="230" x="480" y="86.5759">id INT PRIMARY AUTOINCREMENT</text><ellipse cx="471" cy="101.7119" fill="none" rx="3" ry="3" style="stroke:#038048;stroke-width:1.0;"/><text fill="#000000" font-family="sans-serif" font-size="14" lengthAdjust="spacing" textLength="61" x="480" y="105.6439">text TEXT</text><line style="stroke:#181818;stroke-width:0.5;" x1="461" x2="715" y1="113.7458" y2="113.7458"/></g><!--class rawtoken_normtoken_linking--><g id="elem_rawtoken_normtoken_linking"><rect codeLine="104" fill="#F1F1F1" height="86.1358" id="rawtoken_normtoken_linking" rx="2.5" ry="2.5" style="stroke:#181818;stroke-width:0.5;" width="225" x="649.5" y="451.82"/><ellipse cx="664.5" cy="467.82" fill="#ADD1B2" rx="11" ry="11" style="stroke:#181818;stroke-width:1.0;"/><path d="M660.8594,474.32 L660.8594,462.1794 L668.5156,462.1794 L668.5156,464.3044 L663.2344,464.3044 L663.2344,466.9606 L668.25,466.9606 L668.25,469.0856 L663.2344,469.0856 L663.2344,472.195 L668.5156,472.195 L668.5156,474.32 L660.8594,474.32 Z " fill="#000000"/><text fill="#000000" font-family="sans-serif" font-size="14" lengthAdjust="spacing" textLength="193" x="678.5" y="473.252">rawtoken_normtoken_linking</text><line style="stroke:#181818;stroke-width:0.5;" x1="650.5" x2="873.5" y1="483.82" y2="483.82"/><ellipse cx="660.5" cy="498.854" fill="none" rx="3" ry="3" style="stroke:#038048;stroke-width:1.0;"/><text fill="#000000" font-family="sans-serif" font-size="14" lengthAdjust="spacing" textLength="155" x="669.5" y="502.7859">rawtoken INT PRIMARY</text><ellipse cx="660.5" cy="517.9219" fill="none" rx="3" ry="3" style="stroke:#038048;stroke-width:1.0;"/><text fill="#000000" font-family="sans-serif" font-size="14" lengthAdjust="spacing" textLength="166" x="669.5" y="521.8539">normtoken INT PRIMARY</text><line style="stroke:#181818;stroke-width:0.5;" x1="650.5" x2="873.5" y1="529.9558" y2="529.9558"/></g><!--class ner_label--><g id="elem_ner_label"><rect codeLine="110" fill="#F1F1F1" height="105.2038" id="ner_label" rx="2.5" ry="2.5" style="stroke:#181818;stroke-width:0.5;" width="209" x="699.5" y="229.41"/><ellipse cx="768.75" cy="245.41" fill="#ADD1B2" rx="11" ry="11" style="stroke:#181818;stroke-width:1.0;"/><path d="M765.1094,251.91 L765.1094,239.7694 L772.7656,239.7694 L772.7656,241.8944 L767.4844,241.8944 L767.4844,244.5506 L772.5,244.5506 L772.5,246.6756 L767.4844,246.6756 L767.4844,249.785 L772.7656,249.785 L772.7656,251.91 L765.1094,251.91 Z " fill="#000000"/><text fill="#000000" font-family="sans-serif" font-size="14" lengthAdjust="spacing" textLength="62" x="789.25" y="250.842">ner_label</text><line style="stroke:#181818;stroke-width:0.5;" x1="700.5" x2="907.5" y1="261.41" y2="261.41"/><ellipse cx="710.5" cy="276.444" fill="none" rx="3" ry="3" style="stroke:#038048;stroke-width:1.0;"/><text fill="#000000" font-family="sans-serif" font-size="14" lengthAdjust="spacing" textLength="150" x="719.5" y="280.3759">id SMALLINT PRIMARY</text><line style="stroke:#181818;stroke-width:0.5;" x1="700.5" x2="907.5" y1="288.4779" y2="288.4779"/><ellipse cx="710.5" cy="303.5119" fill="#84BE84" rx="3" ry="3" style="stroke:#038048;stroke-width:1.0;"/><text fill="#000000" font-family="sans-serif" font-size="14" lengthAdjust="spacing" textLength="183" x="719.5" y="307.4439">label VARCHAR(30) UNIQUE</text><ellipse cx="710.5" cy="322.5798" fill="#84BE84" rx="3" ry="3" style="stroke:#038048;stroke-width:1.0;"/><text fill="#000000" font-family="sans-serif" font-size="14" lengthAdjust="spacing" textLength="175" x="719.5" y="326.5118">description VARCHAR(255)</text></g><!--class entity--><g id="elem_entity"><rect codeLine="118" fill="#F1F1F1" height="143.3396" id="entity" rx="2.5" ry="2.5" style="stroke:#181818;stroke-width:0.5;" width="311" x="818.5" y="7"/><ellipse cx="950.75" cy="23" fill="#ADD1B2" rx="11" ry="11" style="stroke:#181818;stroke-width:1.0;"/><path d="M947.1094,29.5 L947.1094,17.3594 L954.7656,17.3594 L954.7656,19.4844 L949.4844,19.4844 L949.4844,22.1406 L954.5,22.1406 L954.5,24.2656 L949.4844,24.2656 L949.4844,27.375 L954.7656,27.375 L954.7656,29.5 L947.1094,29.5 Z " fill="#000000"/><text fill="#000000" font-family="sans-serif" font-size="14" lengthAdjust="spacing" textLength="38" x="971.25" y="28.432">entity</text><line style="stroke:#181818;stroke-width:0.5;" x1="819.5" x2="1128.5" y1="39" y2="39"/><ellipse cx="829.5" cy="54.034" fill="none" rx="3" ry="3" style="stroke:#038048;stroke-width:1.0;"/><text fill="#000000" font-family="sans-serif" font-size="14" lengthAdjust="spacing" textLength="41" x="838.5" y="57.9659">id INT</text><ellipse cx="829.5" cy="73.1019" fill="#84BE84" rx="3" ry="3" style="stroke:#038048;stroke-width:1.0;"/><text fill="#000000" font-family="sans-serif" font-size="14" lengthAdjust="spacing" textLength="132" x="838.5" y="77.0339">label VARCHAR(255)</text><ellipse cx="829.5" cy="92.1698" fill="none" rx="3" ry="3" style="stroke:#038048;stroke-width:1.0;"/><text fill="#000000" font-family="sans-serif" font-size="14" lengthAdjust="spacing" textLength="109" x="838.5" y="96.1018">ner_label_id INT</text><line style="stroke:#181818;stroke-width:1.0;" x1="819.5" x2="1128.5" y1="104.2038" y2="104.2038"/><ellipse cx="829.5" cy="119.2377" fill="#84BE84" rx="3" ry="3" style="stroke:#038048;stroke-width:1.0;"/><text fill="#000000" font-family="sans-serif" font-size="14" lengthAdjust="spacing" textLength="42" x="838.5" y="123.1697">PK (id)</text><ellipse cx="829.5" cy="138.3056" fill="#84BE84" rx="3" ry="3" style="stroke:#038048;stroke-width:1.0;"/><text fill="#000000" font-family="sans-serif" font-size="14" lengthAdjust="spacing" textLength="285" x="838.5" y="142.2376">FK (ner_label_id) REFERENCES ner_label(id)</text></g><!--class sentence_entity_linking--><g id="elem_sentence_entity_linking"><rect codeLine="130" fill="#F1F1F1" height="105.2038" id="sentence_entity_linking" rx="2.5" ry="2.5" style="stroke:#181818;stroke-width:0.5;" width="189" x="943.5" y="229.41"/><ellipse cx="958.5" cy="245.41" fill="#ADD1B2" rx="11" ry="11" style="stroke:#181818;stroke-width:1.0;"/><path d="M954.8594,251.91 L954.8594,239.7694 L962.5156,239.7694 L962.5156,241.8944 L957.2344,241.8944 L957.2344,244.5506 L962.25,244.5506 L962.25,246.6756 L957.2344,246.6756 L957.2344,249.785 L962.5156,249.785 L962.5156,251.91 L954.8594,251.91 Z " fill="#000000"/><text fill="#000000" font-family="sans-serif" font-size="14" lengthAdjust="spacing" textLength="157" x="972.5" y="250.842">sentence_entity_linking</text><line style="stroke:#181818;stroke-width:0.5;" x1="944.5" x2="1131.5" y1="261.41" y2="261.41"/><ellipse cx="954.5" cy="276.444" fill="none" rx="3" ry="3" style="stroke:#038048;stroke-width:1.0;"/><text fill="#000000" font-family="sans-serif" font-size="14" lengthAdjust="spacing" textLength="89" x="963.5" y="280.3759">sentence INT</text><ellipse cx="954.5" cy="295.5119" fill="none" rx="3" ry="3" style="stroke:#038048;stroke-width:1.0;"/><text fill="#000000" font-family="sans-serif" font-size="14" lengthAdjust="spacing" textLength="66" x="963.5" y="299.4439">entity INT</text><line style="stroke:#181818;stroke-width:1.0;" x1="944.5" x2="1131.5" y1="307.5458" y2="307.5458"/><ellipse cx="954.5" cy="322.5798" fill="#84BE84" rx="3" ry="3" style="stroke:#038048;stroke-width:1.0;"/><text fill="#000000" font-family="sans-serif" font-size="14" lengthAdjust="spacing" textLength="136" x="963.5" y="326.5118">PK (sentence, entity)</text></g><!--reverse link lexeme_form to rawtoken--><g id="link_lexeme_form_rawtoken"><path codeLine="138" d="M327.9751,128.1129 C348.4851,153.6029 370.12,180.5 393.8,209.93 " fill="none" id="lexeme_form-backto-rawtoken" style="stroke:#181818;stroke-width:1.0;"/><line style="stroke:#181818;stroke-width:1.0;" x1="327.9751" x2="316.7271" y1="128.1129" y2="121.88"/><line style="stroke:#181818;stroke-width:1.0;" x1="327.9751" x2="329.1929" y1="128.1129" y2="121.88"/><line style="stroke:#181818;stroke-width:1.0;" x1="327.9751" x2="322.96" y1="128.1129" y2="121.88"/></g><!--reverse link normtoken to rawtoken--><g id="link_normtoken_rawtoken"><path codeLine="139" d="M554.7803,128.4946 C537.4403,153.9846 519.4,180.5 499.37,209.93 " fill="none" id="normtoken-backto-rawtoken" style="stroke:#181818;stroke-width:1.0;"/><line style="stroke:#181818;stroke-width:1.0;" x1="554.7803" x2="552.6654" y1="128.4946" y2="121.88"/><line style="stroke:#181818;stroke-width:1.0;" x1="554.7803" x2="565.8946" y1="128.4946" y2="121.88"/><line style="stroke:#181818;stroke-width:1.0;" x1="554.7803" x2="559.28" y1="128.4946" y2="121.88"/></g><!--reverse link rawtoken to sentence--><g id="link_rawtoken_sentence"><path codeLine="140" d="M587.1202,325.1198 C620.4702,335.3198 648.72,343.84 682,353.68 C775.08,381.22 802.23,376.75 892,413.68 C897.88,416.1 903.83,418.7 909.8,421.43 " fill="none" id="rawtoken-backto-sentence" style="stroke:#181818;stroke-width:1.0;"/><line style="stroke:#181818;stroke-width:1.0;" x1="587.1202" x2="579.47" y1="325.1198" y2="330.4302"/><line style="stroke:#181818;stroke-width:1.0;" x1="587.1202" x2="579.47" y1="325.1198" y2="315.1298"/><line style="stroke:#181818;stroke-width:1.0;" x1="587.1202" x2="579.47" y1="325.1198" y2="322.78"/></g><!--reverse link sentence to document--><g id="link_sentence_document"><path codeLine="141" d="M1021.3338,584.1907 C1016.9438,607.4107 1013.77,624.27 1009.81,645.26 " fill="none" id="sentence-backto-document" style="stroke:#181818;stroke-width:1.0;"/><line style="stroke:#181818;stroke-width:1.0;" x1="1021.3338" x2="1014.9593" y1="584.1907" y2="576.33"/><line style="stroke:#181818;stroke-width:1.0;" x1="1021.3338" x2="1030.6807" y1="584.1907" y2="576.33"/><line style="stroke:#181818;stroke-width:1.0;" x1="1021.3338" x2="1022.82" y1="584.1907" y2="576.33"/></g><!--reverse link document to collection--><g id="link_document_collection"><path codeLine="142" d="M1000,758.97 C1000,780.44 1000,797.52 1000,819.93 " fill="none" id="document-backto-collection" style="stroke:#181818;stroke-width:1.0;"/><line style="stroke:#181818;stroke-width:1.0;" x1="1000" x2="992" y1="758.97" y2="750.97"/><line style="stroke:#181818;stroke-width:1.0;" x1="1000" x2="1008" y1="758.97" y2="750.97"/><line style="stroke:#181818;stroke-width:1.0;" x1="1000" x2="1000" y1="758.97" y2="750.97"/></g><!--reverse link collection to dataset--><g id="link_collection_dataset"><path codeLine="143" d="M1000,952.95 C1000,972.07 1000,985.15 1000,1004.27 " fill="none" id="collection-backto-dataset" style="stroke:#181818;stroke-width:1.0;"/><line style="stroke:#181818;stroke-width:1.0;" x1="1000" x2="992" y1="952.95" y2="944.95"/><line style="stroke:#181818;stroke-width:1.0;" x1="1000" x2="1008" y1="952.95" y2="944.95"/><line style="stroke:#181818;stroke-width:1.0;" x1="1000" x2="1000" y1="952.95" y2="944.95"/></g><!--reverse link dataset to provider--><g id="link_dataset_provider"><path codeLine="144" d="M1000,1137.16 C1000,1156.55 1000,1169.79 1000,1188.46 " fill="none" id="dataset-backto-provider" style="stroke:#181818;stroke-width:1.0;"/><line style="stroke:#181818;stroke-width:1.0;" x1="1000" x2="992" y1="1137.16" y2="1129.16"/><line style="stroke:#181818;stroke-width:1.0;" x1="1000" x2="1008" y1="1137.16" y2="1129.16"/><line style="stroke:#181818;stroke-width:1.0;" x1="1000" x2="1000" y1="1137.16" y2="1129.16"/></g><!--link entity to ner_label--><g id="link_entity_ner_label"><path codeLine="147" d="M914.06,150.66 C892.27,176.47 868.06,205.15 847.91,229.01 " fill="none" id="entity-ner_label" style="stroke:#181818;stroke-width:1.0;"/></g><!--link sentence to score--><g id="link_sentence_score"><path codeLine="148" d="M1146.27,576.33 C1182.4,603.17 1221.21,632 1251.86,654.78 " fill="none" id="sentence-score" style="stroke:#181818;stroke-width:1.0;"/></g><!--link sentence to language--><g id="link_sentence_language"><path codeLine="149" d="M909.66,566.98 C903.71,570.09 897.8,573.14 892,576.09 C850.21,597.35 804.01,619.47 762.4,638.9 " fill="none" id="sentence-language" style="stroke:#181818;stroke-width:1.0;"/></g><!--link rawtoken to lexical_category--><g id="link_rawtoken_lexical_category"><path codeLine="150" d="M449.65,354.11 C449.1,382.93 448.49,415.59 447.98,442.08 " fill="none" id="rawtoken-lexical_category" style="stroke:#181818;stroke-width:1.0;"/></g><!--link rawtoken to language--><g id="link_rawtoken_language"><path codeLine="151" d="M519.67,353.93 C534.67,372.29 549.25,392.8 560,413.68 C596.78,485.16 616.35,576.41 625.94,635.81 " fill="none" id="rawtoken-language" style="stroke:#181818;stroke-width:1.0;"/></g><!--link rawtoken to rawtoken_normtoken_linking--><g id="link_rawtoken_rawtoken_normtoken_linking"><path codeLine="154" d="M562.4809,358.6004 C610.0909,390.8904 651.568,419.0112 692.668,446.8712 " fill="none" id="rawtoken-rawtoken_normtoken_linking" style="stroke:#181818;stroke-width:1.0;"/><line style="stroke:#181818;stroke-width:1.0;" x1="562.4809" x2="551.3696" y1="358.6004" y2="354.11"/><line style="stroke:#181818;stroke-width:1.0;" x1="562.4809" x2="560.3504" y1="358.6004" y2="354.11"/><line style="stroke:#181818;stroke-width:1.0;" x1="562.4809" x2="555.86" y1="358.6004" y2="354.11"/><line style="stroke:#181818;stroke-width:1.0;" x1="692.668" x2="703.7788" y1="446.8712" y2="451.36"/><line style="stroke:#181818;stroke-width:1.0;" x1="692.668" x2="694.8012" y1="446.8712" y2="451.36"/><line style="stroke:#181818;stroke-width:1.0;" x1="692.668" x2="699.29" y1="446.8712" y2="451.36"/></g><!--link normtoken to rawtoken_normtoken_linking--><g id="link_normtoken_rawtoken_normtoken_linking"><path codeLine="155" d="M602.0297,129.613 C617.8897,184.263 646.06,274.17 682,353.68 C697.35,387.65 714.1726,417.3312 730.8026,444.5812 " fill="none" id="normtoken-rawtoken_normtoken_linking" style="stroke:#181818;stroke-width:1.0;"/><line style="stroke:#181818;stroke-width:1.0;" x1="602.0297" x2="592.117" y1="129.613" y2="121.93"/><line style="stroke:#181818;stroke-width:1.0;" x1="602.0297" x2="607.483" y1="129.613" y2="121.93"/><line style="stroke:#181818;stroke-width:1.0;" x1="602.0297" x2="599.8" y1="129.613" y2="121.93"/><line style="stroke:#181818;stroke-width:1.0;" x1="730.8026" x2="741.7988" y1="444.5812" y2="451.41"/><line style="stroke:#181818;stroke-width:1.0;" x1="730.8026" x2="728.1412" y1="444.5812" y2="451.41"/><line style="stroke:#181818;stroke-width:1.0;" x1="730.8026" x2="734.97" y1="444.5812" y2="451.41"/></g><!--link rawtoken to rawtoken_sentence_linking--><g id="link_rawtoken_rawtoken_sentence_linking"><path codeLine="156" d="M365.897,360.0124 C350.757,377.8724 342.26,392.07 334,413.68 C303.1,494.51 320.054,590.0334 335.044,646.9934 " fill="none" id="rawtoken-rawtoken_sentence_linking" style="stroke:#181818;stroke-width:1.0;"/><line style="stroke:#181818;stroke-width:1.0;" x1="365.897" x2="364.9676" y1="360.0124" y2="353.91"/><line style="stroke:#181818;stroke-width:1.0;" x1="365.897" x2="377.1724" y1="360.0124" y2="353.91"/><line style="stroke:#181818;stroke-width:1.0;" x1="365.897" x2="371.07" y1="360.0124" y2="353.91"/><line style="stroke:#181818;stroke-width:1.0;" x1="335.044" x2="344.8166" y1="646.9934" y2="654.73"/><line style="stroke:#181818;stroke-width:1.0;" x1="335.044" x2="329.3434" y1="646.9934" y2="654.73"/><line style="stroke:#181818;stroke-width:1.0;" x1="335.044" x2="337.08" y1="646.9934" y2="654.73"/></g><!--link sentence to rawtoken_sentence_linking--><g id="link_sentence_rawtoken_sentence_linking"><path codeLine="157" d="M902.3361,572.4956 C896.4161,574.8956 897.89,574.11 892,576.09 C719.97,634.03 662.34,585.54 488,636.09 C470.89,641.05 460.506,644.5926 443.646,651.6726 " fill="none" id="sentence-rawtoken_sentence_linking" style="stroke:#181818;stroke-width:1.0;"/><line style="stroke:#181818;stroke-width:1.0;" x1="902.3361" x2="909.75" y1="572.4956" y2="562.0761"/><line style="stroke:#181818;stroke-width:1.0;" x1="902.3361" x2="909.75" y1="572.4956" y2="576.9039"/><line style="stroke:#181818;stroke-width:1.0;" x1="902.3361" x2="909.75" y1="572.4956" y2="569.49"/><line style="stroke:#181818;stroke-width:1.0;" x1="443.646" x2="439.3674" y1="651.6726" y2="654.77"/><line style="stroke:#181818;stroke-width:1.0;" x1="443.646" x2="433.1726" y1="651.6726" y2="654.77"/><line style="stroke:#181818;stroke-width:1.0;" x1="443.646" x2="436.27" y1="651.6726" y2="654.77"/></g><!--link rawtoken to rawtoken_lexeme_form_linking--><g id="link_rawtoken_rawtoken_lexeme_form_linking"><path codeLine="158" d="M334.7091,358.4648 C290.3891,387.2248 253.6008,411.0951 212.8108,437.5651 " fill="none" id="rawtoken-rawtoken_lexeme_form_linking" style="stroke:#181818;stroke-width:1.0;"/><line style="stroke:#181818;stroke-width:1.0;" x1="334.7091" x2="337.0652" y1="358.4648" y2="354.11"/><line style="stroke:#181818;stroke-width:1.0;" x1="334.7091" x2="345.7748" y1="358.4648" y2="354.11"/><line style="stroke:#181818;stroke-width:1.0;" x1="334.7091" x2="341.42" y1="358.4648" y2="354.11"/><line style="stroke:#181818;stroke-width:1.0;" x1="212.8108" x2="210.4549" y1="437.5651" y2="441.92"/><line style="stroke:#181818;stroke-width:1.0;" x1="212.8108" x2="201.7451" y1="437.5651" y2="441.92"/><line style="stroke:#181818;stroke-width:1.0;" x1="212.8108" x2="206.1" y1="437.5651" y2="441.92"/></g><!--link lexeme_form to rawtoken_lexeme_form_linking--><g id="link_lexeme_form_rawtoken_lexeme_form_linking"><path codeLine="159" d="M269.3906,129.5044 C239.3306,205.8944 182.0201,351.5459 149.3901,434.4459 " fill="none" id="lexeme_form-rawtoken_lexeme_form_linking" style="stroke:#181818;stroke-width:1.0;"/><line style="stroke:#181818;stroke-width:1.0;" x1="269.3906" x2="264.8756" y1="129.5044" y2="122.06"/><line style="stroke:#181818;stroke-width:1.0;" x1="269.3906" x2="279.7644" y1="129.5044" y2="122.06"/><line style="stroke:#181818;stroke-width:1.0;" x1="269.3906" x2="272.32" y1="129.5044" y2="122.06"/><line style="stroke:#181818;stroke-width:1.0;" x1="149.3901" x2="153.9041" y1="434.4459" y2="441.89"/><line style="stroke:#181818;stroke-width:1.0;" x1="149.3901" x2="139.0159" y1="434.4459" y2="441.89"/><line style="stroke:#181818;stroke-width:1.0;" x1="149.3901" x2="146.46" y1="434.4459" y2="441.89"/></g><!--link sentence_entity_linking to sentence--><g id="link_sentence_entity_linking_sentence"><path codeLine="160" d="M1038,342.87 C1038,366.53 1038,379.09 1038,405.44 " fill="none" id="sentence_entity_linking-sentence" style="stroke:#181818;stroke-width:1.0;"/><line style="stroke:#181818;stroke-width:1.0;" x1="1038" x2="1030" y1="342.87" y2="334.87"/><line style="stroke:#181818;stroke-width:1.0;" x1="1038" x2="1046" y1="342.87" y2="334.87"/><line style="stroke:#181818;stroke-width:1.0;" x1="1038" x2="1038" y1="342.87" y2="334.87"/><line style="stroke:#181818;stroke-width:1.0;" x1="1038" x2="1046" y1="405.44" y2="413.44"/><line style="stroke:#181818;stroke-width:1.0;" x1="1038" x2="1030" y1="405.44" y2="413.44"/><line style="stroke:#181818;stroke-width:1.0;" x1="1038" x2="1038" y1="405.44" y2="413.44"/></g><!--link entity to sentence_entity_linking--><g id="link_entity_sentence_entity_linking"><path codeLine="161" d="M998.985,158.2836 C1007.195,184.0936 1011.4549,197.5264 1019.0449,221.3864 " fill="none" id="entity-sentence_entity_linking" style="stroke:#181818;stroke-width:1.0;"/><line style="stroke:#181818;stroke-width:1.0;" x1="998.985" x2="988.9364" y1="158.2836" y2="150.66"/><line style="stroke:#181818;stroke-width:1.0;" x1="998.985" x2="1004.1836" y1="158.2836" y2="150.66"/><line style="stroke:#181818;stroke-width:1.0;" x1="998.985" x2="996.56" y1="158.2836" y2="150.66"/><line style="stroke:#181818;stroke-width:1.0;" x1="1019.0449" x2="1029.0936" y1="221.3864" y2="229.01"/><line style="stroke:#181818;stroke-width:1.0;" x1="1019.0449" x2="1013.8464" y1="221.3864" y2="229.01"/><line style="stroke:#181818;stroke-width:1.0;" x1="1019.0449" x2="1021.47" y1="221.3864" y2="229.01"/></g><!--SRC=[lLVRKXiv47ttL_IRGu6nkTXPgDgjSjWXSQqnO22RVNB9Cy9MCPQ6aSR6c-AtyWFviUsMHkCPsv0b3w6Wm5At-fpkesvHhyEDKIa78UzLEcD6A0bih383HZrmkGSnVn8XYo5aXazKkWGcergjNeVRgT20tvBpY4Te3f7GHiX99lGKw3HDPf-3uGVoWUxT5uY5V21BC-MWsOp3euXgN1fXbZxGg0ZqjGRujGiYWjxW5gw6lOlky1-u6_Ikxu9yxz5jvfyIfGsRm6tmvRRsd8FaqBkvXCxHIUC0GXLnWgo9SeHe7eYuHRESnUwpLgTGvx9U2sEcDSGC2R49VmbDz-xsiZSu6mONGG538hCHbnO732xnvwxVh-8MMeqicbTiScuRkyz4ZEzFzc4e7dI4uEJzzs_fdCL6OlenyFL1gzDk7xplxFZa9gcQYuYdRw61Zl4Qm1AopztXsQVkyDrHQ-V_8DJm_LkII0OHCum0_jRkj0xRHsHvtVkJz89rmDeOdivEuRfzSdXo_BxLyWH25SSyjFBy9HHoGVcqbUkGIuk8Q6v8JvPgn1EM6Zv3m9gdmfRXyAZTEZZk77iMtkSNKYWbRWi9Y_pZuCDnfxq7cdEO6fFeqsPpiLZifxvu-vetzRmPgOUCw3LKE6t4RCBIOgbPPk_eDoFTE3WvEMbqsetHH8unHBF8WmgjsriIuNDNOU6s-1EgHcBlm6EgcN8iDORYCkIsNqNSO3xm-e-NhWybx6m9W_wL1-UjtrGbXB2rI5csZgbQdY8JMsZfa3hpbesYAMsfABLOx09Ws3ZcdbBA5hQTZpotaJVp70lI9QRvbdUkREN1-1EMt3Pxp9B68I5Xp07dI3Yb1ekjF0LK7hPyDn1MlHxzHjRF8yZFsenlhRR4VfLeAS86rws4VWu47kK6fGQM99obD4zMScCQS9GcE4sjFyaDXMR7uPJDER2DyKg7ejdIxuTgXbDD68wzICmOZiK7kvb6E3ui_IcVKNuP2fc7ubw4syyaWUvk35cwCIKz_Ux5kPREjro5ZJdU-_4j-IcbsmT8al8vzHo8iYJ6kBRHgNjtelRJdNh76Bi7QH7j4PIZHONmrIgklyLI9Hny38QladPEv_tBxhPvJMWbFQzYyQzzAZd1e0VE5Z77fVjKpIfYyWgHQcivRwr4U9n0XjrMmsAgOC4alTeWLjYK4vYpLDXqQCe7aqkOO2Zf8XIzdx9ZjVafqnXHsuLrh33DzAO7lhMCdWc9hpwyvI_wLinyaidgpSegv5Fg0ExwOzCn2uwdsIvZixUHxuqMKM1uIuDO0Tzi1bQG3izKnP7Bnm2L4xCnZsqPxB0fai3JaTsoWMqARYww_NurwgvphupwOeJW0E4wJ4LYTUzD3jljdJ8c_6QGIV6OEJmg3BCq9T7laqr0PRL1JY78KfNmqnKswX2DFmWRmg_tBy_g7dx-gy3kxlawN8l5PgvyehDjDEpErL_mJaJEwXp_Bblkm30u3uR1u2ouMHrXpHt1l-bInqltfiS_kIUAnf3WZx_V-xbrf6JTu6L2w_mV7V_FY2D4PgwNaoHcMMn4WXKrOkRw2Tli67wekiyLELKdgrt8lJPIu0ttSWl748Uff7P5r4vhvS7vt6WKIgsjT5bPBfHCgmNk0XAj-XT8hNYAqEhgsLWhlI2jlNk7rVnxZDRyEvdmKWaSN9yVD2WgjufDWAXhLbPylry1fyMrYLBTz1wbLD7l2lMlhzpwQkfUjNpXoFL7LIM_hzczSDwMjyjwuNzW_P8YhUUwV2kBQnx_0G00]--></g></svg>